<svg width="1046" height="390" viewBox="0 0 1046 390" fill="none" xmlns="http://www.w3.org/2000/svg">
<path d="M455.614 225L433.598 153.32H433.086C433.171 155.027 433.299 157.587 433.47 161C433.64 164.413 433.811 168.083 433.982 172.008C434.152 175.848 434.238 179.347 434.238 182.504V225H416.958V133.608H443.326L464.958 203.496H465.342L488.254 133.608H514.622V225H496.574V181.736C496.574 178.835 496.616 175.507 496.702 171.752C496.872 167.997 497 164.456 497.086 161.128C497.256 157.715 497.384 155.155 497.47 153.448H496.958L473.406 225H455.614ZM627.052 179.176C627.052 186.259 626.156 192.701 624.364 198.504C622.657 204.221 620.012 209.171 616.428 213.352C612.929 217.533 608.406 220.733 602.86 222.952C597.398 225.171 590.956 226.28 583.532 226.28C576.108 226.28 569.622 225.171 564.076 222.952C558.614 220.648 554.092 217.448 550.508 213.352C547.009 209.171 544.364 204.179 542.572 198.376C540.865 192.573 540.012 186.131 540.012 179.048C540.012 169.576 541.548 161.341 544.62 154.344C547.777 147.347 552.556 141.928 558.956 138.088C565.441 134.163 573.676 132.2 583.66 132.2C593.558 132.2 601.708 134.163 608.108 138.088C614.508 141.928 619.244 147.389 622.316 154.472C625.473 161.469 627.052 169.704 627.052 179.176ZM560.364 179.176C560.364 185.576 561.174 191.08 562.796 195.688C564.417 200.296 566.934 203.837 570.348 206.312C573.761 208.787 578.156 210.024 583.532 210.024C589.078 210.024 593.516 208.787 596.844 206.312C600.257 203.837 602.732 200.296 604.268 195.688C605.889 191.08 606.7 185.576 606.7 179.176C606.7 169.533 604.908 161.981 601.324 156.52C597.74 151.059 591.852 148.328 583.66 148.328C578.198 148.328 573.761 149.565 570.348 152.04C566.934 154.515 564.417 158.056 562.796 162.664C561.174 167.272 560.364 172.776 560.364 179.176ZM681.567 133.608C693.343 133.608 701.919 136.168 707.295 141.288C712.756 146.323 715.487 153.277 715.487 162.152C715.487 166.163 714.889 170.003 713.695 173.672C712.5 177.256 710.495 180.499 707.679 183.4C704.948 186.216 701.321 188.435 696.799 190.056C692.276 191.677 686.687 192.488 680.031 192.488H671.711V225H652.383V133.608H681.567ZM680.543 149.48H671.711V176.616H678.111C681.78 176.616 684.937 176.147 687.583 175.208C690.228 174.269 692.276 172.776 693.727 170.728C695.177 168.68 695.903 166.035 695.903 162.792C695.903 158.269 694.665 154.941 692.191 152.808C689.716 150.589 685.833 149.48 680.543 149.48ZM739.158 133.608H756.566V177.768C756.566 179.901 756.523 182.291 756.438 184.936C756.352 187.581 756.267 190.184 756.182 192.744C756.096 195.219 756.011 197.395 755.926 199.272C755.84 201.064 755.755 202.301 755.67 202.984H756.054L798.294 133.608H821.462V225H804.182V181.096C804.182 178.792 804.224 176.275 804.31 173.544C804.395 170.728 804.48 168.04 804.566 165.48C804.736 162.92 804.864 160.701 804.95 158.824C805.12 156.861 805.248 155.581 805.334 154.984H804.822L762.454 225H739.158V133.608ZM933.877 179.176C933.877 186.259 932.981 192.701 931.189 198.504C929.482 204.221 926.837 209.171 923.253 213.352C919.754 217.533 915.231 220.733 909.685 222.952C904.223 225.171 897.781 226.28 890.357 226.28C882.933 226.28 876.447 225.171 870.901 222.952C865.439 220.648 860.917 217.448 857.333 213.352C853.834 209.171 851.189 204.179 849.397 198.376C847.69 192.573 846.837 186.131 846.837 179.048C846.837 169.576 848.373 161.341 851.445 154.344C854.602 147.347 859.381 141.928 865.781 138.088C872.266 134.163 880.501 132.2 890.485 132.2C900.383 132.2 908.533 134.163 914.933 138.088C921.333 141.928 926.069 147.389 929.141 154.472C932.298 161.469 933.877 169.704 933.877 179.176ZM867.189 179.176C867.189 185.576 867.999 191.08 869.621 195.688C871.242 200.296 873.759 203.837 877.173 206.312C880.586 208.787 884.981 210.024 890.357 210.024C895.903 210.024 900.341 208.787 903.669 206.312C907.082 203.837 909.557 200.296 911.093 195.688C912.714 191.08 913.525 185.576 913.525 179.176C913.525 169.533 911.733 161.981 908.149 156.52C904.565 151.059 898.677 148.328 890.485 148.328C885.023 148.328 880.586 149.565 877.173 152.04C873.759 154.515 871.242 158.056 869.621 162.664C867.999 167.272 867.189 172.776 867.189 179.176ZM1034.09 225H1014.76V185.576H978.536V225H959.208V133.608H978.536V169.448H1014.76V133.608H1034.09V225Z" fill="black"/>
<path d="M351.375 104.716V285.283L195 375.565L38.625 285.283V104.716L195 14.4336L351.375 104.716Z" fill="#21293D" stroke="#FF780A" stroke-width="25"/>
<path d="M179.396 171.914C171.867 168.078 165.816 161.662 162.249 153.732C158.682 145.801 157.813 136.832 159.786 128.313C161.758 119.794 166.454 112.237 173.094 106.896C179.734 101.556 187.919 98.752 196.291 98.9508C204.663 99.1496 212.718 102.339 219.12 107.989C225.521 113.64 229.885 121.412 231.487 130.015C233.089 138.619 231.832 147.538 227.925 155.291C224.018 163.044 217.696 169.166 210.009 172.641L203.66 157.248C207.993 155.29 211.556 151.839 213.758 147.469C215.96 143.099 216.669 138.072 215.766 133.222C214.863 128.373 212.404 123.992 208.795 120.807C205.187 117.622 200.646 115.825 195.928 115.713C191.209 115.6 186.596 117.181 182.853 120.191C179.11 123.201 176.463 127.461 175.352 132.263C174.24 137.064 174.73 142.12 176.74 146.59C178.751 151.06 182.161 154.676 186.405 156.838L179.396 171.914Z" fill="white"/>
<rect width="17.5556" height="108.029" transform="matrix(0.918581 0.395233 -0.365488 0.930816 170.707 180.591)" fill="white"/>
<path d="M143.582 281.453L149.074 283.816L144.232 296.148C143.628 297.684 141.91 298.401 140.393 297.749C138.876 297.096 138.136 295.321 138.74 293.785L143.582 281.453Z" fill="white"/>
<path d="M245.916 278.571L240.424 280.934L246.312 295.93C246.915 297.467 248.634 298.184 250.15 297.531C251.667 296.879 252.407 295.104 251.804 293.567L245.916 278.571Z" fill="white"/>
<rect width="17.5556" height="108.029" transform="matrix(-0.918581 0.395233 0.365488 0.930816 219.844 180.591)" fill="white"/>
<path d="M183.529 69.1061C183.529 62.7711 188.665 57.6355 195 57.6355C201.335 57.6355 206.47 62.7711 206.47 69.1061V112.389H183.529V69.1061Z" fill="white"/>
<path d="M190.871 218.8C190.871 216.266 192.925 214.212 195.459 214.212C197.993 214.212 200.047 216.266 200.047 218.8V236.305H190.871V218.8Z" fill="white"/>
<rect x="170.682" y="156.576" width="16.5176" height="30.7389" fill="white"/>
<rect x="203.718" y="156.576" width="16.5176" height="30.7389" fill="white"/>
<path d="M260.612 180.111C260.612 188.247 258.915 196.304 255.617 203.821C252.32 211.338 247.487 218.169 241.394 223.922C235.302 229.675 228.069 234.239 220.108 237.353C212.148 240.466 203.616 242.069 195 242.069C186.384 242.069 177.852 240.466 169.891 237.353C161.931 234.239 154.698 229.675 148.605 223.922C142.513 218.169 137.68 211.338 134.383 203.821C131.085 196.304 129.388 188.247 129.388 180.111H142.511C142.511 186.62 143.868 193.066 146.506 199.079C149.144 205.093 153.01 210.557 157.884 215.16C162.758 219.762 168.545 223.413 174.913 225.904C181.281 228.395 188.107 229.677 195 229.677C201.893 229.677 208.718 228.395 215.087 225.904C221.455 223.413 227.241 219.762 232.116 215.16C236.99 210.557 240.856 205.093 243.494 199.079C246.132 193.066 247.489 186.62 247.489 180.111H260.612Z" fill="white"/>
</svg>
